<?xml version="1.0" standalone="no"?>
<!DOCTYPE svg PUBLIC "-//W3C//DTD SVG 20010904//EN"
 "http://www.w3.org/TR/2001/REC-SVG-20010904/DTD/svg10.dtd">
<svg version="1.0" xmlns="http://www.w3.org/2000/svg"
 width="732.000000pt" height="178.000000pt" viewBox="0 0 732.000000 178.000000"
 preserveAspectRatio="xMidYMid meet">
<metadata>
Created by potrace 1.16, written by Peter Selinger 2001-2019
</metadata>
<g transform="translate(0.000000,178.000000) scale(0.100000,-0.100000)"
fill="#000000" stroke="none">
<path d="M6908 1187 c-115 -33 -173 -106 -166 -208 7 -95 54 -128 222 -153
105 -16 134 -29 115 -52 -7 -9 -33 -14 -74 -14 -50 0 -74 6 -122 31 l-60 31
-63 -39 c-35 -21 -65 -44 -67 -49 -12 -35 90 -103 185 -123 221 -47 432 53
432 203 0 103 -55 146 -223 173 -50 8 -99 19 -110 25 -20 10 -20 11 -2 24 38
28 140 14 196 -27 12 -9 28 -3 82 31 37 23 67 45 67 50 0 14 -69 69 -108 86
-50 22 -240 29 -304 11z"/>
<path d="M2065 1172 c-28 -10 -71 -30 -97 -45 -163 -95 -217 -316 -108 -440
56 -63 121 -89 241 -95 188 -9 338 67 406 207 37 74 40 193 7 256 -27 51 -91
100 -156 120 -72 21 -228 19 -293 -3z m203 -180 c45 -29 46 -120 0 -169 -38
-41 -76 -56 -132 -50 -61 6 -96 39 -96 93 0 114 133 187 228 126z"/>
<path d="M4050 1172 c-74 -25 -95 -37 -148 -86 -122 -111 -145 -308 -50 -412
74 -81 228 -103 343 -50 33 15 67 34 77 43 17 15 18 14 18 -20 l0 -37 88 0 87
0 23 153 c12 83 22 158 22 165 0 9 -48 12 -204 12 l-204 0 -6 -30 c-3 -16 -9
-43 -12 -60 l-6 -30 98 0 c95 0 97 0 80 -19 -10 -11 -40 -25 -66 -31 -92 -22
-160 23 -160 104 0 78 58 139 132 139 33 0 47 -6 66 -28 l24 -28 105 16 c58 9
107 17 109 19 2 2 -1 21 -7 41 -14 53 -60 101 -121 128 -73 31 -210 37 -288
11z"/>
<path d="M4638 905 l-156 -285 120 0 120 0 15 39 15 39 90 7 c101 8 108 4 108
-52 l0 -33 120 0 c89 0 120 3 120 13 0 6 -28 135 -62 285 l-62 272 -136 0
-137 0 -155 -285z"/>
<path d="M5305 1168 c-5 -22 -85 -534 -85 -544 0 -3 48 -3 107 -2 l107 3 22
140 c13 77 23 142 24 145 1 3 19 -60 39 -140 l37 -145 94 0 95 0 79 143 c43
78 80 141 81 140 3 -3 -27 -196 -39 -260 l-5 -28 109 0 c81 0 110 3 110 13 0
6 18 126 40 265 22 140 40 263 40 273 0 19 -8 19 -147 17 l-146 -3 -79 -140
c-44 -77 -85 -151 -92 -164 -13 -23 -17 -12 -53 140 l-39 164 -147 3 c-145 3
-147 2 -152 -20z"/>
<path d="M6225 1168 c-5 -21 -85 -534 -85 -544 0 -2 112 -4 250 -4 l250 0 5
23 c3 12 9 48 13 80 l9 57 -139 0 c-144 0 -148 1 -132 44 5 13 26 16 124 16
l118 0 6 48 c4 26 9 55 12 65 5 15 -5 17 -115 17 -126 0 -131 2 -115 44 5 14
27 16 139 16 l133 0 5 33 c3 17 9 53 13 80 l6 47 -246 0 -246 0 -5 -22z"/>
<path d="M2625 1158 c-5 -22 -85 -534 -85 -544 0 -3 53 -3 117 -2 l118 3 7 50
c4 28 10 65 13 83 l6 32 108 0 c123 0 116 -5 127 89 l7 61 -113 0 c-98 0 -111
2 -106 16 3 9 6 24 6 35 0 17 10 19 137 21 l137 3 12 75 c7 41 13 81 13 88 1
9 -55 12 -249 12 l-250 0 -5 -22z"/>
<path d="M3175 1158 c-5 -22 -85 -534 -85 -544 0 -3 53 -3 117 -2 l118 3 7 50
c4 28 10 65 13 83 l6 32 108 0 c123 0 116 -5 127 89 l7 61 -113 0 c-98 0 -111
2 -106 16 3 9 6 24 6 35 0 17 10 19 137 21 l137 3 12 75 c7 41 13 81 13 88 1
9 -55 12 -249 12 l-250 0 -5 -22z"/>
</g>
</svg>
