<?xml version="1.0" encoding="UTF-8" standalone="no"?>
<!DOCTYPE svg PUBLIC "-//W3C//DTD SVG 1.1//EN" "http://www.w3.org/Graphics/SVG/1.1/DTD/svg11.dtd">

<!-- Created with Vectornator (http://vectornator.io/) -->
<svg height="100%" stroke-miterlimit="10" style="fill-rule:nonzero;clip-rule:evenodd;stroke-linecap:round;stroke-linejoin:round;" version="1.1" viewBox="0 0 77 13" width="100%" xml:space="preserve" xmlns="http://www.w3.org/2000/svg" xmlns:vectornator="http://vectornator.io" xmlns:xlink="http://www.w3.org/1999/xlink">
<metadata>
<vectornator:setting key="IsTimeLapseWatermarkDisabled" value="false"/>
<vectornator:setting key="UndoHistoryDisabled" value="true"/>
<vectornator:setting key="VNDimensionsVisible" value="true"/>
<vectornator:setting key="VNSnapToGuides" value="true"/>
<vectornator:setting key="WDCMYKEnabledKey" value="false"/>
<vectornator:setting key="WDDisplayWhiteBackground" value="false"/>
<vectornator:setting key="WDDynamicGuides" value="false"/>
<vectornator:setting key="WDGuidesVisible" value="true"/>
<vectornator:setting key="WDIsolateActiveLayer" value="false"/>
<vectornator:setting key="WDOutlineMode" value="false"/>
<vectornator:setting key="WDRulersVisible" value="true"/>
<vectornator:setting key="WDSnapToEdges" value="false"/>
<vectornator:setting key="WDSnapToGrid" value="false"/>
<vectornator:setting key="WDSnapToPoints" value="false"/>
<vectornator:setting key="WDUnits" value="Points"/>
</metadata>
<defs>
<path d="M5.24921 4.48381L82.9025 4.48381L82.9025 4.48381L82.9025 8.78472L82.9025 8.78472L5.24921 8.78472L5.24921 8.78472L5.24921 4.48381L5.24921 4.48381Z" fill-rule="evenodd" id="Fill"/>
<path d="M5.24921 4.48381L82.9025 4.48381L82.9025 4.48381L82.9025 8.78472L82.9025 8.78472L5.24921 8.78472L5.24921 8.78472L5.24921 4.48381L5.24921 4.48381Z" fill-rule="evenodd" id="Fill_2"/>
<path d="M5.24921 4.48381L82.9025 4.48381L82.9025 4.48381L82.9025 8.78472L82.9025 8.78472L5.24921 8.78472L5.24921 8.78472L5.24921 4.48381L5.24921 4.48381Z" fill-rule="evenodd" id="Fill_3"/>
<path d="M5.24921 4.48381L82.9025 4.48381L82.9025 4.48381L82.9025 8.78472L82.9025 8.78472L5.24921 8.78472L5.24921 8.78472L5.24921 4.48381L5.24921 4.48381Z" fill-rule="evenodd" id="Fill_4"/>
<path d="M5.24921 4.48381L82.9025 4.48381L82.9025 4.48381L82.9025 8.78472L82.9025 8.78472L5.24921 8.78472L5.24921 8.78472L5.24921 4.48381L5.24921 4.48381Z" fill-rule="evenodd" id="Fill_5"/>
<path d="M5.24921 4.48381L82.9025 4.48381L82.9025 4.48381L82.9025 8.78472L82.9025 8.78472L5.24921 8.78472L5.24921 8.78472L5.24921 4.48381L5.24921 4.48381Z" fill-rule="evenodd" id="Fill_6"/>
<path d="M5.24921 4.48381L82.9025 4.48381L82.9025 4.48381L82.9025 8.78472L82.9025 8.78472L5.24921 8.78472L5.24921 8.78472L5.24921 4.48381L5.24921 4.48381Z" fill-rule="evenodd" id="Fill_7"/>
<path d="M5.24921 4.48381L82.9025 4.48381L82.9025 4.48381L82.9025 8.78472L82.9025 8.78472L5.24921 8.78472L5.24921 8.78472L5.24921 4.48381L5.24921 4.48381Z" fill-rule="evenodd" id="Fill_8"/>
<path d="M11.2762 4.4326L29.4903 4.4326L29.4903 4.4326L29.4903 8.83593L29.4903 8.83593L11.2762 8.83593L11.2762 8.83593L11.2762 4.4326L11.2762 4.4326Z" fill-rule="evenodd" id="Fill_9"/>
<path d="M11.2762 4.4326L29.4903 4.4326L29.4903 4.4326L29.4903 8.83593L29.4903 8.83593L11.2762 8.83593L11.2762 8.83593L11.2762 4.4326L11.2762 4.4326Z" fill-rule="evenodd" id="Fill_10"/>
</defs>
<g id="Untitled" vectornator:layerName="Untitled" visibility="hidden">
<path d="M5.78601 2.88806C6.65868 2.88806 7.36701 3.05806 7.91101 3.39806C8.46634 3.73806 8.86868 4.19706 9.11801 4.77506C9.37868 5.34172 9.50901 5.97072 9.50901 6.66206L9.50901 12.0001L7.75801 12.0001L7.75801 6.86606C7.75801 6.17472 7.53701 5.60239 7.09501 5.14906C6.66434 4.69572 6.06368 4.48039 5.29301 4.50306C4.73768 4.50306 4.23901 4.62772 3.79701 4.87706C3.35501 5.12639 3.00934 5.44372 2.76001 5.82906C2.51068 6.20306 2.38601 6.58272 2.38601 6.96806L2.38601 12.0001L0.63501 12.0001L0.63501 3.07506L2.38601 3.07506L2.38601 4.62206C2.74868 4.15739 3.21901 3.75506 3.79701 3.41506C4.37501 3.06372 5.03801 2.88806 5.78601 2.88806Z" fill="#141414" fill-rule="evenodd" opacity="0" stroke="none"/>
<path d="M27.0203 10.8271L27.0033 10.8271C26.7087 11.0537 26.3347 11.2747 25.8813 11.4901C25.4393 11.6941 24.9463 11.8584 24.4023 11.9831C23.8697 12.1077 23.3257 12.1701 22.7703 12.1701C21.6823 12.1701 20.7247 11.9774 19.8973 11.5921C19.0813 11.1954 18.441 10.6571 17.9763 9.97706C17.523 9.28572 17.2963 8.50372 17.2963 7.63106C17.2963 6.63372 17.54 5.78372 18.0273 5.08106C18.5147 4.36706 19.1607 3.82306 19.9653 3.44906C20.77 3.06372 21.654 2.87106 22.6173 2.87106C23.5013 2.87106 24.306 3.05806 25.0313 3.43206C25.7567 3.79472 26.3347 4.29906 26.7653 4.94506C27.196 5.59106 27.4113 6.34472 27.4113 7.20606L27.3943 8.05606L19.0813 8.05606C19.2173 8.82672 19.6423 9.43872 20.3563 9.89206C21.0703 10.3341 21.96 10.5551 23.0253 10.5551C23.8187 10.5551 24.4647 10.4361 24.9633 10.1981C25.4733 9.96006 25.887 9.73339 26.2043 9.51806L27.0203 10.8271ZM22.6173 4.48606C21.7447 4.48606 20.9853 4.65039 20.3393 4.97906C19.7047 5.30772 19.2967 5.86872 19.1153 6.66206L25.6263 6.66206L25.6263 6.44106C25.581 6.05572 25.411 5.71572 25.1163 5.42106C24.8217 5.12639 24.4533 4.89972 24.0113 4.74106C23.5693 4.57106 23.1047 4.48606 22.6173 4.48606Z" fill="#141414" fill-rule="evenodd" opacity="0" stroke="none"/>
<path d="M44.9944 7.52906C44.9944 8.43572 44.7621 9.24039 44.2974 9.94306C43.8441 10.6344 43.2207 11.1784 42.4274 11.5751C41.6341 11.9717 40.7217 12.1701 39.6904 12.1701C38.6591 12.1701 37.7411 11.9717 36.9364 11.5751C36.1431 11.1784 35.5141 10.6344 35.0494 9.94306C34.5961 9.24039 34.3694 8.43572 34.3694 7.52906C34.3694 6.62239 34.5961 5.82339 35.0494 5.13206C35.5141 4.42939 36.1431 3.87972 36.9364 3.48306C37.7411 3.08639 38.6591 2.88806 39.6904 2.88806C40.7217 2.88806 41.6341 3.08639 42.4274 3.48306C43.2207 3.87972 43.8441 4.42939 44.2974 5.13206C44.7621 5.82339 44.9944 6.62239 44.9944 7.52906ZM43.2094 7.52906C43.2207 6.92839 43.0677 6.40139 42.7504 5.94806C42.4444 5.48339 42.0251 5.12639 41.4924 4.87706C40.9597 4.61639 40.3591 4.48606 39.6904 4.48606C39.0331 4.48606 38.4324 4.61639 37.8884 4.87706C37.3444 5.12639 36.9137 5.48339 36.5964 5.94806C36.2904 6.40139 36.1431 6.92839 36.1544 7.52906C36.1431 8.11839 36.2904 8.64539 36.5964 9.11006C36.9137 9.56339 37.3444 9.92039 37.8884 10.1811C38.4324 10.4417 39.0331 10.5721 39.6904 10.5721C40.3591 10.5721 40.9597 10.4417 41.4924 10.1811C42.0364 9.92039 42.4614 9.56339 42.7674 9.11006C43.0734 8.64539 43.2207 8.11839 43.2094 7.52906Z" fill="#141414" fill-rule="evenodd" opacity="0" stroke="none"/>
<path d="M55.8351 12.0001L54.0841 12.0001L54.0841 4.77506L51.6531 4.77506L51.6531 3.07506L54.0841 3.07506L54.0841 0.508057L55.8351 0.508057L55.8351 3.07506L58.6741 3.07506L58.6741 4.77506L55.8351 4.77506L55.8351 12.0001Z" fill="#141414" fill-rule="evenodd" opacity="0" stroke="none"/>
<path d="M76.0652 7.52906C76.0652 8.43572 75.8329 9.24039 75.3682 9.94306C74.9149 10.6344 74.2915 11.1784 73.4982 11.5751C72.7049 11.9717 71.7925 12.1701 70.7612 12.1701C69.7299 12.1701 68.8119 11.9717 68.0072 11.5751C67.2139 11.1784 66.5849 10.6344 66.1202 9.94306C65.6669 9.24039 65.4402 8.43572 65.4402 7.52906C65.4402 6.62239 65.6669 5.82339 66.1202 5.13206C66.5849 4.42939 67.2139 3.87972 68.0072 3.48306C68.8119 3.08639 69.7299 2.88806 70.7612 2.88806C71.7925 2.88806 72.7049 3.08639 73.4982 3.48306C74.2915 3.87972 74.9149 4.42939 75.3682 5.13206C75.8329 5.82339 76.0652 6.62239 76.0652 7.52906ZM74.2802 7.52906C74.2915 6.92839 74.1385 6.40139 73.8212 5.94806C73.5152 5.48339 73.0959 5.12639 72.5632 4.87706C72.0305 4.61639 71.4299 4.48606 70.7612 4.48606C70.1039 4.48606 69.5032 4.61639 68.9592 4.87706C68.4152 5.12639 67.9845 5.48339 67.6672 5.94806C67.3612 6.40139 67.2139 6.92839 67.2252 7.52906C67.2139 8.11839 67.3612 8.64539 67.6672 9.11006C67.9845 9.56339 68.4152 9.92039 68.9592 10.1811C69.5032 10.4417 70.1039 10.5721 70.7612 10.5721C71.4299 10.5721 72.0305 10.4417 72.5632 10.1811C73.1072 9.92039 73.5322 9.56339 73.8382 9.11006C74.1442 8.64539 74.2915 8.11839 74.2802 7.52906Z" fill="#141414" fill-rule="evenodd" opacity="0" stroke="none"/>
</g>
<clipPath id="ArtboardFrame">
<rect height="13" width="77" x="0" y="0"/>
</clipPath>
<g clip-path="url(#ArtboardFrame)" id="Layer-1" vectornator:layerName="Layer 1">
<path d="M20.686 1.534L20.686 1.534C23.5316 1.534 25.8383 3.84077 25.8383 6.68631L25.8383 6.68631C25.8383 9.53189 23.5316 11.8386 20.686 11.8386L20.686 11.8386C17.8405 11.8386 15.5337 9.53189 15.5337 6.68631L15.5337 6.68631C15.5337 3.84077 17.8405 1.534 20.686 1.534Z" fill="#96fd61" fill-rule="evenodd" opacity="1" stroke="none"/>
<g opacity="1">
<g opacity="1" vectornator:mask="#Fill">
<clipPath id="ClipPath">
<use overflow="#visible" xlink:href="#Fill"/>
</clipPath>
<g clip-path="url(#ClipPath)">
<path d="M28.9505 8.60245C30.3244 8.60245 31.4581 7.73293 31.4581 6.44545C31.4581 5.50867 30.7039 4.91297 29.4693 4.91297C28.0953 4.91297 26.9616 5.77769 26.9616 7.06997C26.9616 8.00676 27.7158 8.60245 28.9505 8.60245ZM29.0994 7.54557C28.6382 7.54557 28.3644 7.30537 28.3644 6.91624C28.3644 6.39261 28.7583 5.96985 29.3204 5.96985C29.7815 5.96985 30.0554 6.21005 30.0554 6.59918C30.0554 7.12282 29.6614 7.54557 29.0994 7.54557Z" fill="#000000" fill-rule="evenodd" opacity="1" stroke="none"/>
</g>
</g>
<g opacity="1" vectornator:mask="#Fill_2">
<clipPath id="ClipPath_2">
<use overflow="#visible" xlink:href="#Fill_2"/>
</clipPath>
<g clip-path="url(#ClipPath_2)">
<path d="M31.4918 8.48716L32.8801 8.48716L33.0483 7.42067L34.4174 7.42067L34.5615 6.52712L33.1876 6.52712L33.2597 6.08515L34.917 6.08515L35.0852 5.02827L32.0394 5.02827L31.4918 8.48716Z" fill="#000000" fill-rule="evenodd" opacity="1" stroke="none"/>
</g>
</g>
<g opacity="1" vectornator:mask="#Fill_3">
<clipPath id="ClipPath_3">
<use overflow="#visible" xlink:href="#Fill_3"/>
</clipPath>
<g clip-path="url(#ClipPath_3)">
<path d="M34.8354 8.48716L36.2237 8.48716L36.3919 7.42067L37.761 7.42067L37.9051 6.52712L36.5312 6.52712L36.6033 6.08515L38.2606 6.08515L38.4288 5.02827L35.383 5.02827L34.8354 8.48716Z" fill="#000000" fill-rule="evenodd" opacity="1" stroke="none"/>
</g>
</g>
<g opacity="1" vectornator:mask="#Fill_4">
<clipPath id="ClipPath_4">
<use overflow="#visible" xlink:href="#Fill_4"/>
</clipPath>
<g clip-path="url(#ClipPath_4)">
<path d="M40.8356 8.56402C41.3929 8.56402 41.9501 8.31902 42.2576 7.9347L42.2624 7.9347L42.2432 8.48716L43.2712 8.48716L43.5883 6.46947L41.0758 6.46947L40.9653 7.16605L42.1519 7.16605C42.0654 7.41586 41.7484 7.57439 41.34 7.57439C40.874 7.57439 40.5858 7.31498 40.5858 6.89703C40.5858 6.3878 40.9317 5.96985 41.4313 5.96985C41.7195 5.96985 41.9213 6.11397 41.9741 6.33976L43.2952 6.13319C43.2232 5.41259 42.5746 4.93699 41.5322 4.93699C40.2159 4.93699 39.183 5.85456 39.183 7.14203C39.183 8.01156 39.8075 8.56402 40.8356 8.56402Z" fill="#000000" fill-rule="evenodd" opacity="1" stroke="none"/>
</g>
</g>
<g opacity="1" vectornator:mask="#Fill_5">
<clipPath id="ClipPath_5">
<use overflow="#visible" xlink:href="#Fill_5"/>
</clipPath>
<g clip-path="url(#ClipPath_5)">
<path d="M43.4298 8.48716L44.8181 8.48716L45.0823 7.9443L46.2593 7.9443L46.3362 8.48716L47.763 8.48716L46.9847 5.02827L45.3321 5.02827L43.4298 8.48716ZM45.4138 7.14203L45.9951 5.96025L46.0047 5.96025L46.1873 7.14203L45.4138 7.14203Z" fill="#000000" fill-rule="evenodd" opacity="1" stroke="none"/>
</g>
</g>
<g opacity="1" vectornator:mask="#Fill_6">
<clipPath id="ClipPath_6">
<use overflow="#visible" xlink:href="#Fill_6"/>
</clipPath>
<g clip-path="url(#ClipPath_6)">
<path d="M47.9792 8.48716L49.2474 8.48716L49.5549 6.49349L49.5645 6.49349L50.0689 8.48716L51.1402 8.48716L52.2547 6.49349L52.2643 6.4983L51.9425 8.48716L53.2107 8.48716L53.7584 5.02827L51.9761 5.02827L50.8087 7.10841L50.7991 7.10841L50.3043 5.02827L48.5268 5.02827L47.9792 8.48716Z" fill="#000000" fill-rule="evenodd" opacity="1" stroke="none"/>
</g>
</g>
<g opacity="1" vectornator:mask="#Fill_7">
<clipPath id="ClipPath_7">
<use overflow="#visible" xlink:href="#Fill_7"/>
</clipPath>
<g clip-path="url(#ClipPath_7)">
<path d="M53.6431 8.48716L56.6888 8.48716L56.8378 7.55037L55.1275 7.55037L55.1948 7.13243L56.66 7.13243L56.7897 6.33496L55.3197 6.33496L55.3822 5.96505L57.0395 5.96505L57.1885 5.02827L54.1908 5.02827L53.6431 8.48716Z" fill="#000000" fill-rule="evenodd" opacity="1" stroke="none"/>
</g>
</g>
<g opacity="1" vectornator:mask="#Fill_8">
<clipPath id="ClipPath_8">
<use overflow="#visible" xlink:href="#Fill_8"/>
</clipPath>
<g clip-path="url(#ClipPath_8)">
<path d="M58.8074 8.58804C59.8451 8.58804 60.7867 8.13646 60.7867 7.27655C60.7867 6.70487 60.4071 6.39741 59.5136 6.2677L59.062 6.20525C58.7978 6.16201 58.6345 6.10437 58.6345 5.99868C58.6345 5.86897 58.8603 5.80171 59.1725 5.80171C59.5232 5.80171 59.8451 5.94103 60.0228 6.13799L60.8347 5.62877C60.6089 5.20121 60.0132 4.92258 59.1725 4.92258C58.1685 4.92258 57.2941 5.31651 57.2941 6.21486C57.2941 6.76732 57.6641 7.05556 58.5288 7.18047L59.038 7.24772C59.2974 7.28615 59.4415 7.36302 59.4415 7.47351C59.4415 7.60802 59.2446 7.68008 58.9323 7.68008C58.4855 7.68008 58.0628 7.50714 57.8514 7.25733L56.9771 7.78097C57.2269 8.28059 57.9139 8.58804 58.8074 8.58804Z" fill="#000000" fill-rule="evenodd" opacity="1" stroke="none"/>
</g>
</g>
</g>
<g opacity="1">
<g opacity="1" vectornator:mask="#Fill_9">
<clipPath id="ClipPath_9">
<use overflow="#visible" xlink:href="#Fill_9"/>
</clipPath>
<g clip-path="url(#ClipPath_9)">
<path d="M17.6545 8.55124C19.0285 8.55124 20.1622 7.68172 20.1622 6.39424C20.1622 5.45746 19.408 4.86176 18.1734 4.86176C16.7994 4.86176 15.6657 5.72648 15.6657 7.01876C15.6657 7.95555 16.4199 8.55124 17.6545 8.55124ZM17.8035 7.49436C17.3423 7.49436 17.0684 7.25416 17.0684 6.86503C17.0684 6.3414 17.4624 5.91864 18.0244 5.91864C18.4856 5.91864 18.7595 6.15884 18.7595 6.54797C18.7595 7.07161 18.3655 7.49436 17.8035 7.49436Z" fill="#ffffff" fill-rule="evenodd" opacity="1" stroke="none"/>
</g>
</g>
<g opacity="1" vectornator:mask="#Fill_10">
<clipPath id="ClipPath_10">
<use overflow="#visible" xlink:href="#Fill_10"/>
</clipPath>
<g clip-path="url(#ClipPath_10)">
<path d="M20.1959 8.43595L21.4737 8.43595L21.7956 6.40385L21.8052 6.40385L22.7612 8.43595L24.3753 8.43595L24.923 4.97706L23.6451 4.97706L23.3233 6.99474L23.3137 6.99474L22.3577 4.97706L20.7435 4.97706L20.1959 8.43595Z" fill="#ffffff" fill-rule="evenodd" opacity="1" stroke="none"/>
</g>
</g>
</g>
</g>
</svg>
